<svg width="20" height="20" viewBox="0 0 20 20" fill="none" xmlns="http://www.w3.org/2000/svg">
<path fill-rule="evenodd" clip-rule="evenodd" d="M15.6529 14.2387C18.2892 10.9025 18.0672 6.04639 14.987 2.96615C11.6675 -0.353302 6.28561 -0.353302 2.96615 2.96615C-0.353302 6.28561 -0.353302 11.6675 2.96615 14.987C6.04639 18.0672 10.9025 18.2892 14.2387 15.6529L17.8154 19.2296C18.2059 19.6201 18.8391 19.6201 19.2296 19.2296C19.6201 18.8391 19.6201 18.2059 19.2296 17.8154L15.6529 14.2387ZM13.5728 4.38037C16.1112 6.91878 16.1112 11.0343 13.5728 13.5728C11.0343 16.1112 6.91878 16.1112 4.38037 13.5728C1.84196 11.0343 1.84196 6.91878 4.38037 4.38037C6.91878 1.84196 11.0343 1.84196 13.5728 4.38037Z" fill="#B5BDC0"/>
</svg>
